<svg width="48" height="48" viewBox="0 0 48 48" fill="none" xmlns="http://www.w3.org/2000/svg">
<circle cx="24" cy="26" r="6.5" stroke="#FF498B" stroke-width="3"/>
<mask id="path-2-inside-1_2_134" fill="white">
<path fill-rule="evenodd" clip-rule="evenodd" d="M18.7932 7C18.0061 7 17.2923 7.46157 16.9693 8.17927L15.25 12H8C3.58172 12 0 15.5817 0 20V34C0 38.4183 3.58172 42 8 42H40C44.4183 42 48 38.4183 48 34V20C48 15.5817 44.4183 12 40 12H33L31.5029 8.25722C31.1992 7.4979 30.4637 7 29.6459 7H18.7932Z"/>
</mask>
<path d="M16.9693 8.17927L14.2336 6.94818V6.94818L16.9693 8.17927ZM15.25 12V15H17.1898L17.9858 13.2311L15.25 12ZM33 12L30.2146 13.1142L30.9689 15H33V12ZM31.5029 8.25722L28.7175 9.37139V9.37139L31.5029 8.25722ZM19.7051 9.41036C19.5436 9.76921 19.1867 10 18.7932 10V4C16.8256 4 15.041 5.15392 14.2336 6.94818L19.7051 9.41036ZM17.9858 13.2311L19.7051 9.41036L14.2336 6.94818L12.5142 10.7689L17.9858 13.2311ZM8 15H15.25V9H8V15ZM3 20C3 17.2386 5.23858 15 8 15V9C1.92487 9 -3 13.9249 -3 20H3ZM3 34V20H-3V34H3ZM8 39C5.23858 39 3 36.7614 3 34H-3C-3 40.0751 1.92487 45 8 45V39ZM40 39H8V45H40V39ZM45 34C45 36.7614 42.7614 39 40 39V45C46.0751 45 51 40.0751 51 34H45ZM45 20V34H51V20H45ZM40 15C42.7614 15 45 17.2386 45 20H51C51 13.9249 46.0751 9 40 9V15ZM33 15H40V9H33V15ZM28.7175 9.37139L30.2146 13.1142L35.7854 10.8858L34.2883 7.14305L28.7175 9.37139ZM29.6459 10C29.237 10 28.8693 9.75105 28.7175 9.37139L34.2883 7.14305C33.529 5.24475 31.6905 4 29.6459 4V10ZM18.7932 10H29.6459V4H18.7932V10Z" fill="#152C5B" mask="url(#path-2-inside-1_2_134)"/>
<path d="M41 19H36" stroke="#152C5B" stroke-width="3" stroke-linecap="round" stroke-linejoin="round"/>
</svg>
