<svg width="48" height="48" viewBox="0 0 48 48" fill="none" xmlns="http://www.w3.org/2000/svg">
<path d="M1.5 26C1.5 24.6193 2.61929 23.5 4 23.5H20C21.3807 23.5 22.5 24.6193 22.5 26V34C22.5 35.3807 21.3807 36.5 20 36.5H4C2.61929 36.5 1.5 35.3807 1.5 34V26Z" stroke="#152C5B" stroke-width="3"/>
<path d="M12 14L12 18L12 22" stroke="#152C5B" stroke-width="3" stroke-linecap="round" stroke-linejoin="round"/>
<path d="M17 14L17 16L17 18" stroke="#152C5B" stroke-width="3" stroke-linecap="round" stroke-linejoin="round"/>
<path d="M17 37L17 41.5L17 46" stroke="#152C5B" stroke-width="3" stroke-linecap="round" stroke-linejoin="round"/>
<path d="M6 37L6 46" stroke="#152C5B" stroke-width="3" stroke-linecap="round" stroke-linejoin="round"/>
<path d="M5.4003 2.88516C5.45357 2.65945 5.65503 2.5 5.88693 2.5H18.1367C18.369 2.5 18.5706 2.65991 18.6236 2.88603L20.9646 12.886C21.038 13.1997 20.7999 13.5 20.4777 13.5H3.52694C3.20438 13.5 2.96622 13.1991 3.04031 12.8852L5.4003 2.88516Z" stroke="#FF498B" stroke-width="3"/>
</svg>
