<svg width="48" height="48" viewBox="0 0 48 48" fill="none" xmlns="http://www.w3.org/2000/svg">
<path d="M36.5 40.5C36.5 40.9826 36.2583 41.5996 35.4834 42.3227C34.7063 43.048 33.5001 43.7702 31.8843 44.4081C28.6615 45.6802 24.1068 46.5 19 46.5C13.8932 46.5 9.33851 45.6802 6.11572 44.4081C4.49988 43.7702 3.29371 43.048 2.51655 42.3227C1.74171 41.5996 1.5 40.9826 1.5 40.5C1.5 40.0174 1.74171 39.4004 2.51655 38.6773C3.29371 37.952 4.49988 37.2298 6.11572 36.5919C9.33851 35.3198 13.8932 34.5 19 34.5C24.1068 34.5 28.6615 35.3198 31.8843 36.5919C33.5001 37.2298 34.7063 37.952 35.4834 38.6773C36.2583 39.4004 36.5 40.0174 36.5 40.5Z" stroke="#152C5B" stroke-width="3"/>
<path d="M32.5 10.5C32.5 11.7648 32.1165 14.3152 31.3611 17.5247C30.6151 20.6942 29.5352 24.3866 28.2043 27.8922C26.8675 31.4135 25.3058 34.6705 23.6201 37.0189C21.8704 39.4565 20.2898 40.5 19 40.5C17.7102 40.5 16.1296 39.4565 14.3799 37.0189C12.6942 34.6705 11.1325 31.4135 9.79574 27.8922C8.46485 24.3866 7.38487 20.6942 6.63888 17.5247C5.88349 14.3152 5.5 11.7648 5.5 10.5C5.5 8.22432 6.81576 6.01071 9.25359 4.30423C11.6867 2.60106 15.1279 1.5 19 1.5C22.8721 1.5 26.3133 2.60106 28.7464 4.30423C31.1842 6.01071 32.5 8.22432 32.5 10.5Z" fill="white" stroke="#152C5B" stroke-width="3"/>
<circle cx="19" cy="15" r="5.5" stroke="#FF498B" stroke-width="3"/>
</svg>
