<svg width="48" height="48" viewBox="0 0 48 48" fill="none" xmlns="http://www.w3.org/2000/svg">
<path d="M17 12L17 18" stroke="#152C5B" stroke-width="3" stroke-linecap="round" stroke-linejoin="round"/>
<path d="M32 12L32 18" stroke="#152C5B" stroke-width="3" stroke-linecap="round" stroke-linejoin="round"/>
<mask id="path-3-inside-1_10_351" fill="white">
<path d="M17 13C19.2091 13 21 11.2091 21 9L21 4C21 3.44772 20.5523 3 20 3L14 3C13.4477 3 13 3.44772 13 4L13 9C13 11.2091 14.7909 13 17 13Z"/>
</mask>
<path d="M17 13C19.2091 13 21 11.2091 21 9L21 4C21 3.44772 20.5523 3 20 3L14 3C13.4477 3 13 3.44772 13 4L13 9C13 11.2091 14.7909 13 17 13Z" stroke="#FF498B" stroke-width="6" mask="url(#path-3-inside-1_10_351)"/>
<mask id="path-4-inside-2_10_351" fill="white">
<path d="M32 13C34.2091 13 36 11.2091 36 9L36 4C36 3.44772 35.5523 3 35 3L29 3C28.4477 3 28 3.44772 28 4L28 9C28 11.2091 29.7909 13 32 13Z"/>
</mask>
<path d="M32 13C34.2091 13 36 11.2091 36 9L36 4C36 3.44772 35.5523 3 35 3L29 3C28.4477 3 28 3.44772 28 4L28 9C28 11.2091 29.7909 13 32 13Z" stroke="#FF498B" stroke-width="6" mask="url(#path-4-inside-2_10_351)"/>
<mask id="path-5-inside-3_10_351" fill="white">
<path d="M11 45C13.2091 45 15 43.2091 15 41L15 27C15 26.4477 14.5523 26 14 26L8 26C7.44772 26 7 26.4477 7 27L7 41C7 43.2091 8.79086 45 11 45Z"/>
</mask>
<path d="M11 45C13.2091 45 15 43.2091 15 41L15 27C15 26.4477 14.5523 26 14 26L8 26C7.44772 26 7 26.4477 7 27L7 41C7 43.2091 8.79086 45 11 45Z" stroke="#152C5B" stroke-width="6" mask="url(#path-5-inside-3_10_351)"/>
<path d="M8.68521 19.5363C9.15522 18.8855 9.90915 18.5 10.7119 18.5H38.4233C39.2942 18.5 40.1024 18.9532 40.5565 19.6964L43.001 23.6964C44.019 25.3623 42.8201 27.5 40.8678 27.5H7.82302C5.7836 27.5 4.60226 25.1896 5.79632 23.5363L8.68521 19.5363Z" stroke="#152C5B" stroke-width="3"/>
<mask id="path-7-inside-4_10_351" fill="white">
<path d="M38 45C40.2091 45 42 43.2091 42 41L42 27C42 26.4477 41.5523 26 41 26L35 26C34.4477 26 34 26.4477 34 27L34 41C34 43.2091 35.7909 45 38 45Z"/>
</mask>
<path d="M38 45C40.2091 45 42 43.2091 42 41L42 27C42 26.4477 41.5523 26 41 26L35 26C34.4477 26 34 26.4477 34 27L34 41C34 43.2091 35.7909 45 38 45Z" stroke="#152C5B" stroke-width="6" mask="url(#path-7-inside-4_10_351)"/>
</svg>
