<svg width="36" height="36" viewBox="0 0 36 36" fill="none" xmlns="http://www.w3.org/2000/svg">
<path d="M17.051 4.3573C17.3542 3.44424 18.6458 3.44424 18.949 4.3573L21.6454 12.4755C21.7812 12.8844 22.1636 13.1603 22.5944 13.1603L31.2726 13.1603C32.2467 13.1603 32.6459 14.4111 31.8519 14.9754L24.8692 19.9384C24.511 20.193 24.361 20.6516 24.4995 21.0687L27.1756 29.1256C27.4803 30.0431 26.4352 30.816 25.6472 30.2559L18.5793 25.2324C18.2325 24.9859 17.7675 24.9859 17.4207 25.2324L10.3528 30.2559C9.56479 30.816 8.5197 30.0431 8.82442 29.1256L11.5005 21.0687C11.639 20.6516 11.489 20.193 11.1308 19.9384L4.14806 14.9754C3.35412 14.4111 3.75334 13.1603 4.72738 13.1603L13.4056 13.1603C13.8364 13.1603 14.2188 12.8844 14.3546 12.4755L17.051 4.3573Z" fill="#FFCC47"/>
</svg>
